<?xml version="1.0" standalone="no"?>
<!DOCTYPE svg PUBLIC "-//W3C//DTD SVG 20010904//EN"
 "http://www.w3.org/TR/2001/REC-SVG-20010904/DTD/svg10.dtd">
<svg version="1.0" xmlns="http://www.w3.org/2000/svg"
 width="256.000000pt" height="256.000000pt" viewBox="0 0 256.000000 256.000000"
 preserveAspectRatio="xMidYMid meet">

<g transform="translate(0.000000,256.000000) scale(0.100000,-0.100000)"
fill="#000000" stroke="none">
<path d="M736 1315 c-120 -42 -204 -191 -167 -295 l11 -32 -56 7 c-31 4 -76
15 -100 25 -85 37 -166 134 -188 225 -7 28 -8 28 -19 10 -18 -33 -13 -135 10
-186 81 -182 358 -246 545 -127 91 57 168 171 168 246 0 101 -101 163 -204
127z"/>
</g>
</svg>
